<svg width="16" height="16" viewBox="0 0 16 16" fill="none" xmlns="http://www.w3.org/2000/svg">
<g clip-path="url(#clip0_1046_610)">
<path d="M8.0037 0.121094C4.71386 0.121094 3.7517 0.124488 3.56468 0.140002C2.88955 0.196122 2.46944 0.302422 2.01176 0.530293C1.65904 0.70544 1.38087 0.908464 1.10633 1.19306C0.606345 1.71208 0.303324 2.3506 0.19363 3.10961C0.140299 3.47808 0.124784 3.55323 0.121632 5.43536C0.12042 6.06273 0.121632 6.8884 0.121632 7.99589C0.121632 11.2831 0.125269 12.2442 0.141026 12.4309C0.19557 13.0879 0.298597 13.5012 0.516772 13.9533C0.933729 14.8187 1.73007 15.4684 2.66822 15.7108C2.99306 15.7944 3.35184 15.8405 3.81243 15.8623C4.00758 15.8708 5.99661 15.8769 7.98685 15.8769C9.97709 15.8769 11.9673 15.8744 12.1576 15.8647C12.6909 15.8396 13.0006 15.7981 13.3431 15.7096C14.2873 15.466 15.0691 14.826 15.4945 13.9484C15.7084 13.5072 15.8169 13.0782 15.866 12.4555C15.8767 12.3198 15.8812 10.1553 15.8812 7.99383C15.8812 5.83195 15.8763 3.67153 15.8656 3.53578C15.8159 2.90307 15.7075 2.47763 15.4866 2.02795C15.3054 1.65984 15.1042 1.38493 14.8121 1.10385C14.2908 0.605928 13.6532 0.302906 12.8935 0.193334C12.5254 0.140123 12.452 0.124366 10.5685 0.121094H8.0037Z" fill="url(#paint0_radial_1046_610)"/>
<path d="M8.0037 0.121094C4.71386 0.121094 3.7517 0.124488 3.56468 0.140002C2.88955 0.196122 2.46944 0.302422 2.01176 0.530293C1.65904 0.70544 1.38087 0.908464 1.10633 1.19306C0.606345 1.71208 0.303324 2.3506 0.19363 3.10961C0.140299 3.47808 0.124784 3.55323 0.121632 5.43536C0.12042 6.06273 0.121632 6.8884 0.121632 7.99589C0.121632 11.2831 0.125269 12.2442 0.141026 12.4309C0.19557 13.0879 0.298597 13.5012 0.516772 13.9533C0.933729 14.8187 1.73007 15.4684 2.66822 15.7108C2.99306 15.7944 3.35184 15.8405 3.81243 15.8623C4.00758 15.8708 5.99661 15.8769 7.98685 15.8769C9.97709 15.8769 11.9673 15.8744 12.1576 15.8647C12.6909 15.8396 13.0006 15.7981 13.3431 15.7096C14.2873 15.466 15.0691 14.826 15.4945 13.9484C15.7084 13.5072 15.8169 13.0782 15.866 12.4555C15.8767 12.3198 15.8812 10.1553 15.8812 7.99383C15.8812 5.83195 15.8763 3.67153 15.8656 3.53578C15.8159 2.90307 15.7075 2.47763 15.4866 2.02795C15.3054 1.65984 15.1042 1.38493 14.8121 1.10385C14.2908 0.605928 13.6532 0.302906 12.8935 0.193334C12.5254 0.140123 12.452 0.124366 10.5685 0.121094H8.0037Z" fill="url(#paint1_radial_1046_610)"/>
<path d="M8.00013 2.18164C6.42006 2.18164 6.22176 2.18855 5.60117 2.21679C4.9818 2.24515 4.55902 2.34321 4.1891 2.48709C3.80644 2.63569 3.48184 2.83447 3.15846 3.15797C2.83483 3.48136 2.63605 3.80596 2.48696 4.18849C2.34273 4.55854 2.24455 4.98143 2.21667 5.60057C2.18891 6.22115 2.18164 6.41957 2.18164 7.99965C2.18164 9.57972 2.18867 9.77741 2.21679 10.398C2.24528 11.0174 2.34333 11.4401 2.48709 11.8101C2.63581 12.1927 2.83459 12.5173 3.1581 12.8407C3.48136 13.1643 3.80596 13.3636 4.18837 13.5122C4.55854 13.6561 4.98143 13.7541 5.60069 13.7825C6.22128 13.8107 6.41945 13.8177 7.9994 13.8177C9.5796 13.8177 9.77729 13.8107 10.3979 13.7825C11.0173 13.7541 11.4405 13.6561 11.8107 13.5122C12.1932 13.3636 12.5173 13.1643 12.8406 12.8407C13.1642 12.5173 13.363 12.1927 13.5121 11.8102C13.6551 11.4401 13.7533 11.0173 13.7824 10.3981C13.8103 9.77753 13.8175 9.57972 13.8175 7.99965C13.8175 6.41957 13.8103 6.22128 13.7824 5.60069C13.7533 4.98131 13.6551 4.55854 13.5121 4.18861C13.363 3.80595 13.1642 3.48136 12.8406 3.15797C12.517 2.83435 12.1933 2.63557 11.8103 2.48709C11.4394 2.34321 11.0164 2.24515 10.397 2.21679C9.77644 2.18855 9.57887 2.18164 7.99831 2.18164H8.00013ZM7.47821 3.23009C7.63311 3.22985 7.80595 3.23009 8.00013 3.23009C9.55354 3.23009 9.73765 3.23567 10.3511 3.26355C10.9183 3.28949 11.2262 3.38427 11.4313 3.4639C11.7028 3.56936 11.8964 3.69541 12.0999 3.89904C12.3035 4.10267 12.4296 4.29661 12.5353 4.56811C12.6149 4.77296 12.7098 5.08083 12.7356 5.64808C12.7635 6.2614 12.7696 6.44563 12.7696 7.99831C12.7696 9.55099 12.7635 9.73523 12.7356 10.3485C12.7097 10.9158 12.6149 11.2237 12.5353 11.4285C12.4298 11.7 12.3035 11.8933 12.0999 12.0969C11.8963 12.3005 11.7029 12.4265 11.4313 12.532C11.2265 12.612 10.9183 12.7065 10.3511 12.7325C9.73778 12.7604 9.55354 12.7664 8.00013 12.7664C6.4466 12.7664 6.26249 12.7604 5.64917 12.7325C5.08192 12.7063 4.77405 12.6115 4.56884 12.5319C4.29733 12.4264 4.1034 12.3004 3.89977 12.0967C3.69614 11.8931 3.57008 11.6997 3.46439 11.428C3.38476 11.2232 3.28985 10.9153 3.26403 10.3481C3.23615 9.73475 3.23058 9.55051 3.23058 7.99686C3.23058 6.44321 3.23615 6.25994 3.26403 5.64663C3.28997 5.07937 3.38476 4.7715 3.46439 4.56642C3.56984 4.29491 3.69614 4.10098 3.89977 3.89735C4.1034 3.69372 4.29733 3.56766 4.56884 3.46197C4.77393 3.38197 5.08192 3.28743 5.64917 3.26137C6.18588 3.23712 6.39388 3.22985 7.47821 3.22864V3.23009ZM11.1057 4.19612C10.7203 4.19612 10.4076 4.50848 10.4076 4.89404C10.4076 5.27949 10.7203 5.5922 11.1057 5.5922C11.4912 5.5922 11.8039 5.27949 11.8039 4.89404C11.8039 4.5086 11.4912 4.19588 11.1057 4.19588V4.19612ZM8.00013 5.01186C6.35012 5.01186 5.01234 6.34964 5.01234 7.99965C5.01234 9.64966 6.35012 10.9868 8.00013 10.9868C9.65014 10.9868 10.9874 9.64966 10.9874 7.99965C10.9874 6.34964 9.65014 5.01186 8.00013 5.01186ZM8.00013 6.06031C9.07113 6.06031 9.93947 6.92853 9.93947 7.99965C9.93947 9.07064 9.07113 9.93898 8.00013 9.93898C6.92901 9.93898 6.0608 9.07064 6.0608 7.99965C6.0608 6.92853 6.92901 6.06031 8.00013 6.06031Z" fill="white"/>
</g>
<defs>
<radialGradient id="paint0_radial_1046_610" cx="0" cy="0" r="1" gradientUnits="userSpaceOnUse" gradientTransform="translate(4.30738 17.0904) rotate(-90) scale(15.6151 14.5273)">
<stop stop-color="#FFDD55"/>
<stop offset="0.1" stop-color="#FFDD55"/>
<stop offset="0.5" stop-color="#FF543E"/>
<stop offset="1" stop-color="#C837AB"/>
</radialGradient>
<radialGradient id="paint1_radial_1046_610" cx="0" cy="0" r="1" gradientUnits="userSpaceOnUse" gradientTransform="translate(-2.5188 1.25611) rotate(78.6776) scale(6.9801 28.7795)">
<stop stop-color="#3771C8"/>
<stop offset="0.128" stop-color="#3771C8"/>
<stop offset="1" stop-color="#6600FF" stop-opacity="0"/>
</radialGradient>
<clipPath id="clip0_1046_610">
<rect width="16" height="15.9995" fill="white"/>
</clipPath>
</defs>
</svg>