<svg width="16" height="16" viewBox="0 0 16 16" fill="none" xmlns="http://www.w3.org/2000/svg">
    <g clip-path="url(#clip0_900_5)">
        <path fill-rule="evenodd" clip-rule="evenodd"
              d="M7.29022 0.0531006H8.70366C10.6449 0.0531006 11.7793 0.338219 12.7863 0.878123C13.7933 1.41802 14.588 2.20665 15.1218 3.21367C15.6617 4.22068 15.9468 5.35508 15.9468 7.29629V8.70369C15.9468 10.6449 15.6617 11.7793 15.1218 12.7863C14.5819 13.7933 13.7933 14.588 12.7863 15.1219C11.7793 15.6618 10.6449 15.9469 8.70366 15.9469H7.29626C5.35505 15.9469 4.22065 15.6618 3.21364 15.1219C2.20664 14.582 1.41195 13.7933 0.878119 12.7863C0.338215 11.7793 0.0531006 10.6449 0.0531006 8.70369V7.29629C0.0531006 5.35508 0.338215 4.22068 0.878119 3.21367C1.41802 2.20665 2.20664 1.41196 3.21364 0.878123C4.2146 0.338219 5.35505 0.0531006 7.29022 0.0531006Z"
              fill="#0068FF"/>
        <path opacity="0.12" fill-rule="evenodd" clip-rule="evenodd"
              d="M15.9468 8.47156V8.70381C15.9468 10.645 15.6617 11.7794 15.1218 12.7864C14.5819 13.7934 13.7932 14.5881 12.7862 15.122C11.7792 15.6619 10.6448 15.947 8.70358 15.947H7.29622C5.70781 15.947 4.65958 15.7561 3.77933 15.3909L2.32812 13.8966L15.9468 8.47156Z"
              fill="#001A33"/>
        <path fill-rule="evenodd" clip-rule="evenodd"
              d="M2.48926 13.9485C3.23258 14.0307 4.16193 13.8188 4.8218 13.4984C7.68718 15.0822 12.1663 15.0065 14.8775 13.2714C14.9827 13.1137 15.0809 12.9497 15.1721 12.7796C15.714 11.7689 16.0001 10.6304 16.0001 8.68211V7.2696C16.0001 5.32128 15.714 4.18275 15.1721 3.17207C14.6363 2.1614 13.8387 1.3699 12.828 0.828026C11.8174 0.286156 10.6788 0 8.73054 0H7.31194C5.65258 0 4.5754 0.208881 3.67034 0.607658C3.62087 0.651958 3.57233 0.697018 3.52481 0.742832C0.869524 3.3025 0.667681 8.85098 2.91927 11.865C2.92178 11.8695 2.92456 11.874 2.92762 11.8785C3.27466 12.3899 2.9398 13.2849 2.41619 13.8085C2.33095 13.8877 2.3614 13.9364 2.48926 13.9485Z"
              fill="white"/>
        <path d="M6.58023 5.44H3.46823V6.1073H5.62781L3.49853 8.74615C3.43181 8.8432 3.3833 8.93421 3.3833 9.14045V9.31031H6.31936C6.46496 9.31031 6.58631 9.18899 6.58631 9.04339V8.68547H4.31751L6.31936 6.17402C6.3497 6.13763 6.40429 6.07091 6.42858 6.04058L6.44071 6.02237C6.55597 5.85251 6.58023 5.70691 6.58023 5.53101V5.44Z"
              fill="#0068FF"/>
        <path d="M10.5413 9.31031H10.9842V5.44H10.3169V9.08586C10.3169 9.2072 10.414 9.31031 10.5413 9.31031Z"
              fill="#0068FF"/>
        <path d="M8.26047 6.30157C7.42332 6.30157 6.7439 6.981 6.7439 7.81815C6.7439 8.6553 7.42332 9.33473 8.26047 9.33473C9.09762 9.33473 9.77705 8.6553 9.77705 7.81815C9.78313 6.981 9.1037 6.30157 8.26047 6.30157ZM8.26047 8.70989C7.76911 8.70989 7.36873 8.30951 7.36873 7.81815C7.36873 7.32679 7.76911 6.92641 8.26047 6.92641C8.75183 6.92641 9.15222 7.32679 9.15222 7.81815C9.15222 8.30951 8.75791 8.70989 8.26047 8.70989Z"
              fill="#0068FF"/>
        <path d="M12.9557 6.27716C12.1125 6.27716 11.427 6.96266 11.427 7.80586C11.427 8.6491 12.1125 9.3346 12.9557 9.3346C13.7989 9.3346 14.4844 8.6491 14.4844 7.80586C14.4844 6.96266 13.7989 6.27716 12.9557 6.27716ZM12.9557 8.70977C12.4583 8.70977 12.0579 8.30938 12.0579 7.81194C12.0579 7.3145 12.4583 6.91412 12.9557 6.91412C13.4531 6.91412 13.8535 7.3145 13.8535 7.81194C13.8535 8.30938 13.4531 8.70977 12.9557 8.70977Z"
              fill="#0068FF"/>
        <path d="M9.42597 9.3102H9.78389V6.38623H9.15906V9.04937C9.15906 9.18889 9.28037 9.3102 9.42597 9.3102Z"
              fill="#0068FF"/>
    </g>
    <defs>
        <clipPath id="clip0_900_5">
            <rect width="16" height="16" fill="white"/>
        </clipPath>
    </defs>
</svg>